{"title":"The Panic In Needle Park -Al Pacino","uid":7808352,"size":1057399930,"categoryP":"video","categoryS":"movies","magnet":"?xt=urn:btih:9ce054c4791580d9ed7529f3a8dd551225552c90&amp;dn=The+Panic+In+Needle+Park+-Al+Pacino&amp;tr=udp%3A%2F%2Ftracker.openbittorrent.com%3A80&amp;tr=udp%3A%2F%2Fopen.demonii.com%3A1337&amp;tr=udp%3A%2F%2Ftracker.coppersurfer.tk%3A6969&amp;tr=udp%3A%2F%2Fexodus.desync.com%3A6969","seeders":1,"leechers":0,"uploader":"onlyjustabhi","files":1,"time":1352460476,"description":" &lt;a href=&quot;http://www.imdb.com/title/tt0067549/&quot; rel=&quot;nofollow&quot; target=&quot;_NEW&quot;&gt;http://www.imdb.com/title/tt0067549/&lt;/a&gt;\n\nThis movie is a stark portrayal of life among a group of heroin addicts who hang out in &quot;Needle Park&quot; in New York City. Played against this setting is a low-key love story between Bobby, a young addict and small-time hustler, and Helen, a homeless girl who finds in her relationship with Bobby the stability she craves. She becomes addicted too, and life goes downhill for them both as their addiction deepens, eventually leading to a series of betrayals. But, in spite of it all, the relationship between Bobby and Helen endures.\n\n\n\n\n\n\n\n\n\n\n\nGeneral\nComplete name                            : E:MoviezThe panic in Needle park.avi\nFormat                                   : AVI\nFormat/Info                              : Audio Video Interleave\nFile size                                : 1 008 MiB\nDuration                                 : 1h 45mn\nOverall bit rate                         : 1 341 Kbps\n\nVideo\nID                                       : 0\nFormat                                   : MPEG-4 Visual\nFormat profile                           : Simple@L3\nFormat settings, BVOP                    : No\nFormat settings, QPel                    : No\nFormat settings, GMC                     : No warppoints\nFormat settings, Matrix                  : Default (H.263)\nCodec ID                                 : XVID\nCodec ID/Hint                            : XviD\nDuration                                 : 1h 45mn\nBit rate                                 : 1 200 Kbps\nWidth                                    : 720 pixels\nHeight                                   : 576 pixels\nDisplay aspect ratio                     : 5:4\nFrame rate                               : 25.000 fps\nStandard                                 : PAL\nColor space                              : YUV\nChroma subsampling                       : 4:2:0\nBit depth                                : 8 bits\nScan type                                : Progressive\nCompression mode                         : Lossy\nBits/(Pixel*Frame)                       : 0.116\nStream size                              : 902 MiB (89%)\nWriting library                          : XviD 1.1.0 Beta2 (UTC 2005-04-04)\n\nAudio\nID                                       : 1\nFormat                                   : MPEG Audio\nFormat version                           : Version 1\nFormat profile                           : Layer 3\nMode                                     : Joint stereo\nMode extension                           : MS Stereo\nCodec ID                                 : 55\nCodec ID/Hint                            : MP3\nDuration                                 : 1h 45mn\nBit rate mode                            : Constant\nBit rate                                 : 128 Kbps\nChannel(s)                               : 2 channels\nSampling rate                            : 48.0 KHz\nCompression mode                         : Lossy\nStream size                              : 96.2 MiB (10%)\nAlignment                                : Aligned on interleaves\nInterleave, duration                     : 24 ms (0.60 video frame)\n\n\n\n &lt;a href=&quot;\nhttp://i.imgur.com/hqPyc.jpg&quot; rel=&quot;nofollow&quot; target=&quot;_NEW&quot;&gt;\nhttp://i.imgur.com/hqPyc.jpg&lt;/a&gt;\n &lt;a href=&quot;\nhttp://i.imgur.com/jtxLt.jpg&quot; rel=&quot;nofollow&quot; target=&quot;_NEW&quot;&gt;\nhttp://i.imgur.com/jtxLt.jpg&lt;/a&gt;\n\n[URL=http://imgur.com/jtxLt][IMG]http://i.imgur.com/jtxLt.jpg[/IMG][/URL]","torrent":{"xt":"urn:btih:9ce054c4791580d9ed7529f3a8dd551225552c90","amp;dn":"The+Panic+In+Needle+Park+-Al+Pacino","amp;tr":["udp%3A%2F%2Ftracker.openbittorrent.com%3A80","udp%3A%2F%2Fopen.demonii.com%3A1337","udp%3A%2F%2Ftracker.coppersurfer.tk%3A6969","udp%3A%2F%2Fexodus.desync.com%3A6969"],"infoHash":"9ce054c4791580d9ed7529f3a8dd551225552c90","infoHashBuffer":{"type":"Buffer","data":[156,224,84,196,121,21,128,217,237,117,41,243,168,221,85,18,37,85,44,144]},"announce":[],"urlList":[]}}